<svg width="1362" height="362" viewBox="0 0 1362 362" fill="none" xmlns="http://www.w3.org/2000/svg">
<path d="M40.798 359.612V329.391H136.435C145.871 329.391 153.14 326.586 158.24 320.975C163.596 315.364 166.274 307.968 166.274 298.787V245.23H165.509C160.663 252.626 154.797 259.257 147.912 265.123C141.026 270.989 133.12 275.707 124.194 279.277C115.267 282.593 105.194 284.25 93.9722 284.25C75.6099 284.25 59.4154 280.042 45.3886 271.626C31.3618 262.955 20.3954 251.096 12.4894 236.049C4.58345 220.747 0.630447 203.278 0.630447 183.64C0.630447 164.513 4.58345 147.298 12.4894 131.996C20.3954 116.694 31.7444 104.58 46.5363 95.654C61.5832 86.7279 79.6904 82.2648 100.858 82.2648C121.261 82.2648 138.985 86.6004 154.032 95.2715C169.079 103.943 180.683 116.057 188.844 131.614C197.26 146.916 201.468 164.895 201.468 185.553V301.082C201.468 318.935 196.24 333.089 185.784 343.545C175.328 354.257 161.046 359.612 142.938 359.612H40.798ZM100.476 254.029C113.482 254.029 124.831 250.969 134.522 244.848C144.469 238.727 152.12 230.439 157.475 219.982C163.086 209.271 165.891 197.284 165.891 184.023C165.891 170.506 163.214 158.392 157.858 147.681C152.502 136.969 144.979 128.553 135.287 122.432C125.596 116.057 113.992 112.869 100.476 112.869C87.2139 112.869 75.7374 116.057 66.0462 122.432C56.61 128.553 49.2141 137.097 43.8584 148.063C38.7578 158.775 36.2074 170.889 36.2074 184.405C36.2074 197.157 38.7578 208.888 43.8584 219.6C49.2141 230.056 56.61 238.472 66.0462 244.848C75.7374 250.969 87.2139 254.029 100.476 254.029ZM355.118 281.955C333.696 281.955 314.696 278.002 298.119 270.096C281.541 261.935 268.535 250.586 259.099 236.049C249.917 221.257 245.327 204.043 245.327 184.405C245.327 165.023 249.28 147.681 257.186 132.379C265.092 116.822 276.058 104.58 290.085 95.654C304.112 86.7279 320.434 82.2648 339.051 82.2648C359.199 82.2648 375.903 86.6004 389.165 95.2715C402.682 103.943 412.756 115.674 419.386 130.466C426.017 145.003 429.333 161.325 429.333 179.432C429.333 182.237 429.205 185.17 428.95 188.231C428.95 191.291 428.695 193.969 428.185 196.264H282.817C284.092 208.251 288.045 218.452 294.676 226.868C301.306 235.029 309.723 241.277 319.924 245.613C330.38 249.693 341.857 251.734 354.353 251.734H405.232V281.955H355.118ZM282.434 171.399H393.756C393.756 166.553 393.246 161.452 392.225 156.097C391.205 150.486 389.42 145.13 386.87 140.03C384.319 134.674 380.877 129.956 376.541 125.875C372.46 121.54 367.232 118.097 360.856 115.547C354.736 112.996 347.467 111.721 339.051 111.721C330.125 111.721 322.219 113.506 315.333 117.077C308.702 120.392 302.964 124.983 298.119 130.848C293.273 136.459 289.575 142.835 287.025 149.976C284.474 157.117 282.944 164.258 282.434 171.399ZM566.022 286.546C546.129 286.546 528.532 282.083 513.23 273.156C497.928 263.975 485.814 251.734 476.888 236.432C467.962 220.875 463.499 203.533 463.499 184.405C463.499 165.278 467.962 148.063 476.888 132.761C485.814 117.204 497.928 104.963 513.23 96.0366C528.532 86.8554 546.129 82.2648 566.022 82.2648C585.914 82.2648 603.512 86.8554 618.814 96.0366C634.371 104.963 646.485 117.077 655.156 132.379C664.082 147.681 668.545 165.023 668.545 184.405C668.545 203.533 664.082 220.875 655.156 236.432C646.485 251.734 634.371 263.975 618.814 273.156C603.512 282.083 585.914 286.546 566.022 286.546ZM566.022 256.324C579.539 256.324 591.27 253.136 601.216 246.761C611.163 240.385 618.941 231.841 624.552 221.13C630.163 210.164 632.968 197.922 632.968 184.405C632.968 170.889 630.163 158.775 624.552 148.063C618.941 137.097 611.163 128.426 601.216 122.05C591.27 115.674 579.539 112.486 566.022 112.486C552.76 112.486 541.029 115.674 530.827 122.05C520.881 128.426 513.103 137.097 507.492 148.063C501.881 158.775 499.076 170.889 499.076 184.405C499.076 197.922 501.881 210.164 507.492 221.13C513.103 231.841 520.881 240.385 530.827 246.761C541.029 253.136 552.76 256.324 566.022 256.324ZM713.677 281.955V2.69478H748.871V281.955H713.677ZM903.911 281.955C882.488 281.955 863.488 278.002 846.911 270.096C830.334 261.935 817.327 250.586 807.891 236.049C798.71 221.257 794.119 204.043 794.119 184.405C794.119 165.023 798.072 147.681 805.978 132.379C813.884 116.822 824.851 104.58 838.878 95.654C852.904 86.7279 869.226 82.2648 887.844 82.2648C907.991 82.2648 924.696 86.6004 937.958 95.2715C951.474 103.943 961.548 115.674 968.179 130.466C974.81 145.003 978.125 161.325 978.125 179.432C978.125 182.237 977.998 185.17 977.743 188.231C977.743 191.291 977.488 193.969 976.978 196.264H831.609C832.884 208.251 836.837 218.452 843.468 226.868C850.099 235.029 858.515 241.277 868.716 245.613C879.173 249.693 890.649 251.734 903.146 251.734H954.025V281.955H903.911ZM831.227 171.399H942.548C942.548 166.553 942.038 161.452 941.018 156.097C939.998 150.486 938.213 145.13 935.662 140.03C933.112 134.674 929.669 129.956 925.333 125.875C921.253 121.54 916.025 118.097 909.649 115.547C903.528 112.996 896.26 111.721 887.844 111.721C878.918 111.721 871.012 113.506 864.126 117.077C857.495 120.392 851.757 124.983 846.911 130.848C842.065 136.459 838.367 142.835 835.817 149.976C833.267 157.117 831.737 164.258 831.227 171.399ZM1023 281.955V2.69478H1058.2V281.955H1023ZM1114.16 281.955V86.8554H1149.73V281.955H1114.16ZM1132.14 55.869C1125.76 55.869 1120.15 53.5737 1115.3 48.9831C1110.71 44.1375 1108.42 38.5268 1108.42 32.151C1108.42 25.7752 1110.71 20.292 1115.3 15.7014C1120.15 10.8558 1125.76 8.433 1132.14 8.433C1138.51 8.433 1144 10.8558 1148.59 15.7014C1153.43 20.292 1155.85 25.7752 1155.85 32.151C1155.85 38.5268 1153.43 44.1375 1148.59 48.9831C1144 53.5737 1138.51 55.869 1132.14 55.869ZM1202.63 281.955V251.734H1295.97C1302.1 251.734 1307.32 250.459 1311.66 247.908C1316.25 245.103 1319.69 241.532 1321.99 237.197C1324.28 232.861 1325.43 228.271 1325.43 223.425C1325.43 218.835 1324.41 214.627 1322.37 210.801C1320.33 206.721 1317.14 203.533 1312.81 201.237C1308.73 198.687 1303.75 197.412 1297.89 197.412H1258.49C1245.99 197.412 1235.02 195.372 1225.59 191.291C1216.4 186.956 1209.14 180.707 1203.78 172.546C1198.68 164.385 1196.13 154.439 1196.13 142.707C1196.13 132.761 1198.55 123.58 1203.4 115.164C1208.24 106.748 1215 99.9896 1223.67 94.8889C1232.34 89.5332 1242.29 86.8554 1253.51 86.8554H1343.41V117.077H1256.96C1249.05 117.077 1242.8 119.5 1238.21 124.345C1233.62 129.191 1231.32 134.929 1231.32 141.56C1231.32 147.936 1233.62 153.546 1238.21 158.392C1243.06 162.983 1249.81 165.278 1258.49 165.278H1295.97C1310 165.278 1321.73 167.573 1331.17 172.164C1340.86 176.499 1348.13 182.875 1352.97 191.291C1358.08 199.707 1360.63 210.036 1360.63 222.278C1360.63 232.734 1358.08 242.553 1352.97 251.734C1347.87 260.66 1340.73 267.928 1331.55 273.539C1322.63 279.15 1312.17 281.955 1300.18 281.955H1202.63Z" fill="#DFE4E6"/>
</svg>
